<svg width="42" height="36" viewBox="0 0 42 36" fill="none" xmlns="http://www.w3.org/2000/svg">
<g clip-path="url(#clip0)">
<path d="M37.7898 34.88H7.98977C6.06977 34.88 4.50977 33.32 4.50977 31.4V28.46C4.50977 26.54 6.06977 24.98 7.98977 24.98H37.7898C39.7098 24.98 41.2698 26.54 41.2698 28.46V31.4C41.2698 33.32 39.7098 34.88 37.7898 34.88Z" fill="#0A202F"/>
<path d="M15.0693 29.9299H31.0093" stroke="white" stroke-width="1.5" stroke-miterlimit="10" stroke-linecap="round" stroke-linejoin="round"/>
<path d="M9.50941 32.2901C10.8128 32.2901 11.8694 31.2335 11.8694 29.9301C11.8694 28.6267 10.8128 27.5701 9.50941 27.5701C8.20602 27.5701 7.14941 28.6267 7.14941 29.9301C7.14941 31.2335 8.20602 32.2901 9.50941 32.2901Z" fill="white"/>
<path d="M4.48 25.5201C2.29 25.5201 0.5 23.7301 0.5 21.5401V18.6001C0.5 16.4101 2.29 14.6201 4.48 14.6201H34.28C36.47 14.6201 38.26 16.4101 38.26 18.6001V21.5401C38.26 23.7301 36.47 25.5201 34.28 25.5201H4.48V25.5201Z" fill="#0A202F"/>
<path d="M34.28 15.1201C36.2 15.1201 37.76 16.6801 37.76 18.6001V21.5401C37.76 23.4601 36.2 25.0201 34.28 25.0201H4.48C2.56 25.0201 1 23.4601 1 21.5401V18.6001C1 16.6801 2.56 15.1201 4.48 15.1201H34.28V15.1201ZM34.28 14.1201H4.48C2.01 14.1201 0 16.1301 0 18.6001V21.5401C0 24.0101 2.01 26.0201 4.48 26.0201H34.28C36.75 26.0201 38.76 24.0101 38.76 21.5401V18.6001C38.76 16.1301 36.75 14.1201 34.28 14.1201Z" fill="white"/>
<path d="M11.5596 20.0703H28.4296" stroke="white" stroke-width="1.5" stroke-miterlimit="10" stroke-linecap="round" stroke-linejoin="round"/>
<path d="M33.5492 19.7002C33.4592 19.6802 33.0892 19.6302 33.0092 19.6102C32.6692 19.5202 32.6492 19.4102 32.6492 19.2502C32.6492 19.0702 32.7892 18.9402 33.0092 18.8902C33.1492 18.8602 33.4092 18.8702 33.5492 18.9102C33.7392 18.9702 33.8392 19.1002 33.8892 19.3202L33.8992 19.4002H34.6992L34.6892 19.3002C34.6292 18.7102 34.2192 18.3402 33.5492 18.2502V17.7202H32.9992V18.2402C32.2992 18.3102 31.8392 18.7302 31.8392 19.3002C31.8392 20.0502 32.3692 20.2402 32.9992 20.3702C33.0992 20.3902 33.4292 20.4402 33.5392 20.4602C33.8392 20.5302 33.9192 20.6502 33.9192 20.8402C33.9192 21.0402 33.7692 21.2002 33.5392 21.2602C33.3892 21.3002 33.1692 21.3002 32.9992 21.2602C32.6792 21.1902 32.5892 21.0002 32.5492 20.7202L32.5392 20.6402H31.6992L31.7092 20.7402C31.7492 21.2302 32.0092 21.8202 32.9992 21.9202V22.4302H33.5392V21.9202C34.2692 21.8402 34.7492 21.3902 34.7492 20.7802C34.7592 20.0202 34.2092 19.8302 33.5492 19.7002Z" fill="white"/>
<path d="M37.0597 29.5601C36.9697 29.5401 36.5997 29.4901 36.5197 29.4701C36.1797 29.3801 36.1597 29.2701 36.1597 29.1101C36.1597 28.9301 36.2997 28.8001 36.5197 28.7501C36.6597 28.7201 36.9197 28.7301 37.0597 28.7701C37.2497 28.8301 37.3497 28.9601 37.3997 29.1801L37.4097 29.2601H38.2097L38.1997 29.1601C38.1397 28.5701 37.7297 28.2001 37.0597 28.1101V27.5801H36.5197V28.1001C35.8197 28.1701 35.3597 28.5901 35.3597 29.1601C35.3597 29.9101 35.8897 30.1001 36.5197 30.2301C36.6197 30.2501 36.9497 30.3001 37.0597 30.3201C37.3597 30.3901 37.4397 30.5101 37.4397 30.7001C37.4397 30.9001 37.2897 31.0601 37.0597 31.1201C36.9097 31.1601 36.6897 31.1601 36.5197 31.1201C36.1997 31.0501 36.1097 30.8601 36.0697 30.5801L36.0597 30.5001H35.2197L35.2297 30.6001C35.2697 31.0901 35.5297 31.6801 36.5197 31.7801V32.2901H37.0597V31.7801C37.7897 31.7001 38.2697 31.2501 38.2697 30.6401C38.2697 29.8801 37.7197 29.6901 37.0597 29.5601Z" fill="white"/>
<path d="M5.99965 22.4302C7.30304 22.4302 8.35965 21.3736 8.35965 20.0702C8.35965 18.7668 7.30304 17.7102 5.99965 17.7102C4.69626 17.7102 3.63965 18.7668 3.63965 20.0702C3.63965 21.3736 4.69626 22.4302 5.99965 22.4302Z" fill="white"/>
<path d="M36.61 17.68C36.37 17.68 36.13 17.66 35.89 17.62L6.57 12.29C5.52 12.1 4.61 11.51 4.01 10.64C3.4 9.76 3.18 8.71 3.37 7.66L3.89 4.77C4.24 2.88 5.88 1.5 7.8 1.5C8.04 1.5 8.28 1.52 8.52 1.56L37.84 6.89C38.89 7.08 39.8 7.67 40.4 8.54C41.01 9.41 41.23 10.47 41.04 11.52L40.52 14.41C40.17 16.3 38.53 17.68 36.61 17.68Z" fill="#0A202F"/>
<path d="M7.79994 2C8.00994 2 8.21994 2.02 8.42994 2.06L37.7499 7.39C39.6399 7.73 40.8999 9.54 40.5499 11.44L40.0199 14.33C39.7099 16.01 38.2499 17.19 36.5999 17.19C36.3899 17.19 36.1799 17.17 35.9699 17.13L6.65994 11.79C4.76994 11.45 3.50994 9.64 3.85994 7.74L4.38994 4.85C4.68994 3.18 6.14994 2 7.79994 2ZM7.79994 1C5.63994 1 3.78994 2.55 3.39994 4.68L2.86994 7.57C2.42994 10 4.04994 12.34 6.47994 12.78L35.7999 18.11C36.0699 18.16 36.3399 18.18 36.5999 18.18C38.7599 18.18 40.6199 16.63 40.9999 14.5L41.5299 11.61C41.9699 9.18 40.3499 6.84 37.9199 6.4L8.60994 1.07C8.33994 1.02 8.06994 1 7.79994 1Z" fill="white"/>
<path d="M14.5098 8.18994L31.1098 11.2099" stroke="white" stroke-width="1.5" stroke-miterlimit="10" stroke-linecap="round" stroke-linejoin="round"/>
<path d="M36.2098 11.7499C36.1198 11.7199 35.7698 11.5999 35.6898 11.5599C35.3698 11.4099 35.3798 11.2999 35.4098 11.1399C35.4398 10.9699 35.5998 10.8599 35.8198 10.8499C35.9698 10.8399 36.2198 10.8999 36.3498 10.9699C36.5298 11.0599 36.6098 11.2099 36.6098 11.4299V11.5099L37.3998 11.6499L37.4098 11.5499C37.4598 10.9499 37.1198 10.5199 36.4698 10.3099L36.5598 9.78994L36.0198 9.68994L35.9298 10.1999C35.2298 10.1499 34.6998 10.4799 34.5998 11.0299C34.4698 11.7599 34.9498 12.0499 35.5498 12.2899C35.6398 12.3299 35.9598 12.4299 36.0698 12.4799C36.3498 12.5999 36.4098 12.7399 36.3698 12.9199C36.3298 13.1199 36.1598 13.2499 35.9298 13.2599C35.7698 13.2699 35.5598 13.2399 35.3898 13.1699C35.0898 13.0499 35.0298 12.8399 35.0398 12.5599V12.4799L34.2198 12.3299L34.2098 12.4299C34.1698 12.9199 34.3198 13.5499 35.2698 13.8199L35.1798 14.3199L35.7198 14.4199L35.8098 13.9199C36.5398 13.9699 37.0898 13.6199 37.1998 13.0099C37.3398 12.2899 36.8398 12.0099 36.2098 11.7499Z" fill="white"/>
<path d="M9.03969 9.56009C10.3431 9.56009 11.3997 8.50348 11.3997 7.20009C11.3997 5.8967 10.3431 4.84009 9.03969 4.84009C7.7363 4.84009 6.67969 5.8967 6.67969 7.20009C6.67969 8.50348 7.7363 9.56009 9.03969 9.56009Z" fill="white"/>
</g>
<defs>
<clipPath id="clip0">
<rect width="41.61" height="36" fill="white"/>
</clipPath>
</defs>
</svg>
