<svg width="33" height="36" viewBox="0 0 33 36" fill="none" xmlns="http://www.w3.org/2000/svg">
<g clip-path="url(#clip0)">
<path d="M24.6699 33.79V13.28C24.6699 12.87 25.0099 12.53 25.4199 12.53H29.7099C30.1199 12.53 30.4599 12.87 30.4599 13.28V33.79H24.6699Z" fill="#0A202F"/>
<path d="M29.7002 13.03C29.8402 13.03 29.9502 13.14 29.9502 13.28V33.29H25.1702V13.28C25.1702 13.14 25.2802 13.03 25.4202 13.03H29.7002ZM29.7002 12.03H25.4102C24.7202 12.03 24.1602 12.59 24.1602 13.28V33.29V34.29H25.1602H29.9402H30.9402V33.29V13.28C30.9502 12.59 30.3902 12.03 29.7002 12.03Z" fill="white"/>
<path d="M16.6299 33.7901V17.3C16.6299 16.89 16.9699 16.55 17.3799 16.55H21.6699C22.0799 16.55 22.4199 16.89 22.4199 17.3V33.7901H16.6299Z" fill="#0A202F"/>
<path d="M21.6699 17.05C21.8099 17.05 21.9199 17.16 21.9199 17.3V33.2901H17.1399V17.3C17.1399 17.16 17.2499 17.05 17.3899 17.05H21.6699ZM21.6699 16.05H17.3799C16.6899 16.05 16.1299 16.61 16.1299 17.3V33.2901V34.2901H17.1299H21.9099H22.9099V33.2901V17.3C22.9099 16.61 22.3499 16.05 21.6699 16.05Z" fill="white"/>
<path d="M0.5 33.82V21.24C0.5 20.83 0.84 20.49 1.25 20.49H5.54C5.95 20.49 6.29 20.83 6.29 21.24V33.82H0.5Z" fill="#0A202F"/>
<path d="M5.54 20.99C5.68 20.99 5.79 21.1 5.79 21.24V33.32H1V21.24C1 21.1 1.11 20.99 1.25 20.99H5.54ZM5.54 19.99H1.25C0.56 19.99 0 20.55 0 21.24V33.32V34.32H1H5.78H6.78V33.32V21.24C6.78 20.55 6.22 19.99 5.54 19.99Z" fill="white"/>
<path d="M8.57031 33.7901V18.6201C8.57031 18.2101 8.91031 17.8701 9.32031 17.8701H13.6103C14.0203 17.8701 14.3603 18.2101 14.3603 18.6201V33.7901H8.57031Z" fill="#0A202F"/>
<path d="M13.6103 18.3701C13.7503 18.3701 13.8603 18.4801 13.8603 18.6201V33.2901H9.07031V18.6201C9.07031 18.4801 9.18031 18.3701 9.32031 18.3701H13.6103ZM13.6103 17.3701H9.32031C8.63031 17.3701 8.07031 17.9301 8.07031 18.6201V33.2901V34.2901H9.07031H13.8503H14.8503V33.2901V18.6201C14.8603 17.9301 14.3003 17.3701 13.6103 17.3701Z" fill="white"/>
<path d="M28.2595 5.90991C28.2595 5.90991 23.5795 10.1699 20.7295 12.2499C17.6895 14.4699 15.0795 13.8599 9.72953 13.3699C5.03953 12.9399 1.26953 17.9399 1.26953 17.9399" stroke="#0A202F" stroke-width="1.5" stroke-miterlimit="10" stroke-linecap="round"/>
<path d="M29.3302 10.49C28.9802 10.49 28.6502 10.35 28.4002 10.09L23.9302 5.43C23.5802 5.07 23.4802 4.56 23.6502 4.09C23.8202 3.62 24.2402 3.3 24.7402 3.25L29.9602 2.75H30.0502C30.4202 2.75 30.7802 2.91 31.0202 3.19C31.2702 3.47 31.3802 3.84 31.3302 4.21L30.6202 9.37C30.5202 10.02 29.9802 10.49 29.3302 10.49Z" fill="#0A202F"/>
<path d="M30.0404 3.5C30.3604 3.5 30.6204 3.79 30.5704 4.11L29.8604 9.27C29.8204 9.56 29.5704 9.74 29.3204 9.74C29.1804 9.74 29.0404 9.69 28.9304 9.57L24.4604 4.91C24.1604 4.59 24.3604 4.05 24.8104 4L29.9904 3.5C30.0104 3.5 30.0304 3.5 30.0404 3.5ZM30.0404 2C29.9804 2 29.9104 2 29.8404 2.01L24.6604 2.51C23.8704 2.59 23.2204 3.09 22.9404 3.83C22.6604 4.57 22.8404 5.38 23.3804 5.95L27.8504 10.61C28.2404 11.01 28.7604 11.24 29.3204 11.24C30.3404 11.24 31.2104 10.48 31.3404 9.48L32.0504 4.32C32.1304 3.74 31.9504 3.15 31.5704 2.7C31.1904 2.26 30.6304 2 30.0404 2Z" fill="white"/>
</g>
<defs>
<clipPath id="clip0">
<rect width="32.08" height="36" fill="white"/>
</clipPath>
</defs>
</svg>
