<svg width="40" height="36" viewBox="0 0 40 36" fill="none" xmlns="http://www.w3.org/2000/svg">
<g clip-path="url(#clip0)">
<path d="M37.84 32.77H1.89C0.84 32.77 0 31.92 0 30.88V5.88C0 4.84 0.84 4 1.89 4H37.84C38.88 4 39.73 4.84 39.73 5.89V30.89C39.73 31.92 38.88 32.77 37.84 32.77Z" fill="#0A202F"/>
<path d="M3.86966 22.4901H35.8597C36.8597 22.4901 37.6697 21.6801 37.6697 20.6801V7.87006C37.6697 6.87006 36.8597 6.06006 35.8597 6.06006H3.86966C2.86966 6.06006 2.05966 6.87006 2.05966 7.87006V20.6801C2.04966 21.6801 2.86966 22.4901 3.86966 22.4901Z" fill="#0A202F"/>
<path d="M20.3901 13.6101C20.2301 13.5801 19.5701 13.4901 19.4201 13.4501C18.8101 13.2901 18.7901 13.0901 18.7901 12.8001C18.7901 12.4901 19.0401 12.2501 19.4201 12.1601C19.6801 12.1001 20.1401 12.1201 20.3901 12.2001C20.7301 12.3101 20.9101 12.5301 20.9901 12.9301L21.0201 13.0601H22.4501L22.4301 12.8801C22.3201 11.8201 21.6001 11.1601 20.4001 11.0101V10.0701H19.4301V11.0001C18.1801 11.1301 17.3601 11.8801 17.3601 12.8901C17.3601 14.2201 18.3001 14.5601 19.4301 14.7901C19.6001 14.8301 20.1901 14.9101 20.4001 14.9501C20.9401 15.0701 21.0701 15.2901 21.0701 15.6301C21.0701 15.9901 20.8001 16.2701 20.4001 16.3701C20.1301 16.4401 19.7501 16.4401 19.4301 16.3801C18.8601 16.2601 18.6901 15.9201 18.6301 15.4201L18.6101 15.2801H17.1201L17.1401 15.4601C17.2201 16.3301 17.6801 17.3901 19.4301 17.5601V18.4701H20.4001V17.5601C21.7001 17.4201 22.5501 16.6201 22.5501 15.5301C22.5401 14.1801 21.5701 13.8501 20.3901 13.6101Z" fill="white"/>
<path d="M13.2994 14.2701C13.2994 12.4401 14.0594 10.7901 15.2894 9.63011C15.8694 9.08011 15.5194 8.11011 14.7194 8.11011H14.6894H9.29938C8.66938 8.11011 8.11937 8.48011 7.82937 9.03011C7.28937 10.0301 6.50938 10.8801 5.54938 11.5001C4.63938 12.0901 4.10938 13.1301 4.10938 14.2201V14.2701C4.10938 15.4101 4.65937 16.4701 5.59937 17.0901C6.52937 17.7001 7.29937 18.5401 7.82937 19.5201C8.12937 20.0701 8.67938 20.4401 9.29938 20.4401H14.6894H14.7194C15.5194 20.4401 15.8694 19.4701 15.2894 18.9201C14.0694 17.7501 13.2994 16.1001 13.2994 14.2701Z" fill="white"/>
<path d="M26.4196 14.2701C26.4196 12.4401 25.6596 10.7901 24.4296 9.63011C23.8496 9.08011 24.1996 8.11011 24.9996 8.11011H25.0296H30.4196C31.0496 8.11011 31.5996 8.48011 31.8896 9.03011C32.4296 10.0301 33.2096 10.8801 34.1696 11.5001C35.0796 12.0901 35.6096 13.1301 35.6096 14.2201V14.2701C35.6096 15.4101 35.0596 16.4701 34.1196 17.0901C33.1896 17.7001 32.4196 18.5401 31.8896 19.5201C31.5896 20.0701 31.0396 20.4401 30.4196 20.4401H25.0296H24.9996C24.1996 20.4401 23.8496 19.4701 24.4296 18.9201C25.6596 17.7501 26.4196 16.1001 26.4196 14.2701Z" fill="white"/>
<path d="M2.0498 24.5801H37.3198" stroke="white" stroke-width="1.5" stroke-miterlimit="10" stroke-linecap="round" stroke-linejoin="round"/>
<path d="M2.0498 27.5801H37.3198" stroke="white" stroke-width="1.5" stroke-miterlimit="10" stroke-linecap="round" stroke-linejoin="round"/>
<path d="M2.0498 30.5801H37.3198" stroke="white" stroke-width="1.5" stroke-miterlimit="10" stroke-linecap="round" stroke-linejoin="round"/>
</g>
<defs>
<clipPath id="clip0">
<rect width="39.73" height="36" fill="white"/>
</clipPath>
</defs>
</svg>
