<svg width="32" height="36" viewBox="0 0 32 36" fill="none" xmlns="http://www.w3.org/2000/svg">
<g clip-path="url(#clip0)">
<path d="M28 35.22H3.48C1.56 35.22 0 33.66 0 31.74V4.48C0 2.56 1.56 1 3.48 1H28C29.92 1 31.48 2.56 31.48 4.48V31.74C31.48 33.66 29.92 35.22 28 35.22Z" fill="#0A202F"/>
<path d="M5.58984 9.40991H25.9698" stroke="white" stroke-width="1.5" stroke-miterlimit="10" stroke-linecap="round" stroke-linejoin="round"/>
<path d="M5.58984 14.4099H25.9698" stroke="white" stroke-width="1.5" stroke-miterlimit="10" stroke-linecap="round" stroke-linejoin="round"/>
<path d="M5.58984 19.4099H22.4098" stroke="white" stroke-width="1.5" stroke-miterlimit="10" stroke-linecap="round" stroke-linejoin="round"/>
<path d="M20.9404 28.0699L22.5804 29.7699L26.6104 25.6699" stroke="white" stroke-width="1.5" stroke-miterlimit="10" stroke-linecap="round" stroke-linejoin="round"/>
<path d="M16.9404 30.7601H14.5304C14.3504 30.7601 14.1804 30.7001 14.0404 30.6001L12.9004 29.7801V29.9201C12.9004 30.3901 12.5204 30.7601 12.0604 30.7601H10.9304C10.2004 30.7601 9.52043 30.4501 9.09043 29.9301C8.73043 29.4901 8.59043 28.9201 8.70043 28.3801L8.97043 27.0901C8.98043 27.0601 8.99043 26.9701 8.91043 26.8601C8.79043 26.7001 8.58043 26.6001 8.32043 26.5701C7.96043 26.5401 7.68043 26.6801 7.56043 26.8201C7.44043 26.9501 7.47043 27.0501 7.47043 27.0901L7.82043 28.6801C7.92043 29.1601 7.81043 29.6501 7.49043 30.0401C7.13043 30.4901 6.55043 30.7601 5.93043 30.7601H5.28043C4.81043 30.7601 4.44043 30.3801 4.44043 29.9201C4.44043 29.4501 4.82043 29.0801 5.28043 29.0801H5.93043C6.08043 29.0801 6.16043 29.0101 6.18043 28.9901L5.82043 27.4601C5.68043 26.8401 5.85043 26.2001 6.29043 25.7101C6.81043 25.1201 7.63043 24.8101 8.48043 24.8901C9.21043 24.9601 9.86043 25.3101 10.2604 25.8501C10.6004 26.3201 10.7304 26.8801 10.6204 27.4301L10.3504 28.7201C10.3504 28.7401 10.3404 28.7901 10.4004 28.8701C10.4804 28.9701 10.6704 29.0801 10.9304 29.0801H11.2204V28.1301C11.2204 27.8101 11.4004 27.5201 11.6804 27.3801C11.9604 27.2401 12.3004 27.2601 12.5604 27.4501L14.8104 29.0801H16.9504C17.4204 29.0801 17.7904 29.4601 17.7904 29.9201C17.7804 30.3901 17.4004 30.7601 16.9404 30.7601Z" fill="white"/>
</g>
<defs>
<clipPath id="clip0">
<rect width="31.48" height="36" fill="white"/>
</clipPath>
</defs>
</svg>
