<svg width="38" height="36" viewBox="0 0 38 36" fill="none" xmlns="http://www.w3.org/2000/svg">
<g clip-path="url(#clip0)">
<path d="M29.8203 2.28007C26.0203 1.41007 22.3303 2.67007 19.9003 5.13007C19.3003 5.74007 18.3403 5.75007 17.7403 5.13007C15.7503 3.07007 12.9503 1.84007 9.80034 2.02007C5.07034 2.28007 1.03034 5.82007 0.180343 10.4801C-0.099657 12.0301 -0.029657 13.5201 0.310343 14.9101C1.85034 23.4101 13.3603 31.6401 17.4103 34.3101C18.2703 34.8701 19.3703 34.8801 20.2303 34.3201C24.3103 31.6601 35.9503 23.4201 37.4903 14.9101C37.8603 13.4101 37.9103 11.7901 37.5503 10.1101C36.7003 6.25007 33.6603 3.16007 29.8203 2.28007Z" fill="#0A202F"/>
<path d="M10.8408 13.7101C10.6508 13.6701 9.89078 13.5701 9.72078 13.5201C9.01078 13.3301 8.99078 13.1101 8.99078 12.7701C8.99078 12.4101 9.28078 12.1401 9.72078 12.0301C10.0208 11.9601 10.5508 11.9801 10.8408 12.0701C11.2308 12.1901 11.4408 12.4501 11.5308 12.9101L11.5608 13.0701H13.2108L13.1908 12.8601C13.0608 11.6401 12.2308 10.8701 10.8408 10.7001V9.62012H9.72078V10.6901C8.28078 10.8401 7.32078 11.7001 7.32078 12.8701C7.32078 14.4101 8.40078 14.8001 9.72078 15.0701C9.92078 15.1101 10.6008 15.2101 10.8408 15.2601C11.4608 15.4001 11.6208 15.6501 11.6208 16.0501C11.6208 16.4701 11.3108 16.7901 10.8408 16.9101C10.5208 16.9901 10.0908 16.9901 9.72078 16.9201C9.06078 16.7801 8.87078 16.3901 8.79078 15.8101L8.77078 15.6401H7.05078L7.07078 15.8401C7.16078 16.8501 7.70078 18.0701 9.72078 18.2801V19.3301H10.8408V18.2801C12.3408 18.1201 13.3308 17.1901 13.3308 15.9301C13.3408 14.3701 12.2108 13.9901 10.8408 13.7101Z" fill="white"/>
<path d="M15.0703 17.6701V17.0401C15.0703 12.3001 18.0303 9.63013 21.9903 9.63013C25.9403 9.63013 28.9203 12.0901 28.9203 16.9501V17.5401C28.9203 22.3001 26.1903 25.0901 21.9103 25.0901C17.7103 25.1001 15.0703 22.3901 15.0703 17.6701ZM24.6203 17.6301V17.0201C24.6203 14.2701 23.8203 12.8901 22.0003 12.8901C20.2003 12.8901 19.3803 14.2501 19.3803 17.0201V17.6501C19.3803 20.4401 20.2003 21.7601 22.0503 21.7601C23.9003 21.7601 24.6203 20.4001 24.6203 17.6301Z" fill="white"/>
</g>
<defs>
<clipPath id="clip0">
<rect width="37.79" height="36" fill="white"/>
</clipPath>
</defs>
</svg>
